# xmcd
#
# Track frame offsets:
# 150
# 16298
# 25842
# 37560
# 51177
# 62803
# 83389
# 93009
# 108869
# 119579
# 137191
#
# Disc length: 1949 seconds
#
# Revision: 0
# Processed by: cddbd v1.4PL0 Copyright (c) Steve Scherf et al.
# Submitted via: Axialis_AX_CDPlayer 2.6
#
DISCID=7b079b0b
DTITLE=Dave van Ronk - In the tradition
DYEAR=1900
DGENRE=
TTITLE0=Alley oop
TTITLE1=Head Inspector
TTITLE2=Swing on a star
TTITLE3=Mr. Middle
TTITLE4=Chelsea Morning
TTITLE5=Clouds
TTITLE6=Keep off the grass
TTITLE7=Dink's song
TTITLE8=New dreams
TTITLE9=Cocaine
TTITLE10=Romping through the swamp
EXTD=
EXTT0=
EXTT1=
EXTT2=
EXTT3=
EXTT4=
EXTT5=
EXTT6=
EXTT7=
EXTT8=
EXTT9=
EXTT10=
PLAYORDER=
